<?xml version="1.0" standalone="no"?>
<!DOCTYPE svg PUBLIC "-//W3C//DTD SVG 20010904//EN"
 "http://www.w3.org/TR/2001/REC-SVG-20010904/DTD/svg10.dtd">
<svg version="1.0" xmlns="http://www.w3.org/2000/svg"
 width="1024.000000pt" height="1024.000000pt" viewBox="0 0 1024.000000 1024.000000"
 preserveAspectRatio="xMidYMid meet">

<g transform="translate(0.000000,1024.000000) scale(0.100000,-0.100000)"
fill="#000000" stroke="none">
<path d="M4303 8195 c-60 -18 -131 -62 -171 -104 -40 -44 -69 -97 -123 -233
-22 -57 -62 -152 -89 -213 -26 -60 -91 -218 -145 -350 -54 -132 -131 -321
-172 -419 -41 -99 -93 -225 -115 -280 -22 -56 -79 -195 -128 -311 -48 -115
-132 -316 -185 -445 -135 -327 -477 -1138 -675 -1605 -91 -215 -103 -259 -98
-360 4 -68 10 -95 40 -158 36 -74 104 -155 173 -203 25 -17 29 -27 27 -58 -4
-56 17 -154 43 -205 29 -58 129 -154 178 -172 20 -7 37 -16 37 -21 0 -4 -9
-27 -20 -50 -49 -108 -159 -408 -149 -408 12 0 107 33 186 64 51 20 98 36 105
36 7 0 50 -54 96 -120 46 -66 87 -120 91 -120 10 0 20 23 107 244 41 103 76
192 79 196 3 4 47 -4 97 -20 51 -15 138 -39 193 -54 276 -73 467 -123 630
-166 99 -26 225 -60 280 -75 55 -15 156 -42 225 -60 241 -64 656 -177 790
-215 333 -96 484 -127 519 -106 7 4 15 6 17 3 3 -3 28 3 55 13 54 19 108 57
109 78 0 6 4 12 9 12 5 0 12 13 16 30 4 16 13 30 21 30 8 0 15 7 15 15 3 32 4
36 19 45 13 8 12 10 -2 10 -10 0 -18 5 -18 10 0 6 8 10 18 11 11 1 9 4 -8 9
-14 4 -19 8 -12 9 6 1 12 10 12 21 0 11 7 20 16 20 8 0 13 4 9 9 -3 6 -14 8
-25 6 -11 -2 -20 0 -20 5 0 5 10 10 23 12 12 2 21 9 19 17 -1 7 2 19 8 26 8 9
6 14 -5 19 -9 3 -15 0 -15 -9 0 -7 -5 -17 -11 -21 -8 -4 -9 1 -4 17 4 13 5 21
1 18 -3 -3 -14 -32 -24 -64 -10 -32 -21 -54 -25 -49 -7 12 67 187 80 191 6 2
10 -10 9 -27 -1 -16 -5 -30 -9 -30 -5 0 -5 -4 -2 -10 9 -15 25 -12 25 5 0 7 6
18 14 22 9 5 12 19 9 40 -3 18 -9 30 -14 27 -24 -14 -17 31 14 98 19 40 40 86
46 102 6 16 14 26 17 23 3 -3 1 -14 -5 -25 -14 -26 -14 -42 -1 -42 6 0 10 10
11 23 0 22 0 22 10 -2 16 -41 20 -16 4 29 -8 24 -13 45 -10 48 3 3 10 -9 16
-26 9 -25 13 -29 24 -19 7 7 11 16 8 21 -3 4 -10 2 -15 -5 -7 -10 -8 -5 -4 14
4 18 2 26 -5 25 -6 -2 -14 3 -17 11 -3 8 0 11 7 7 7 -5 11 1 11 16 0 13 6 32
14 43 7 11 16 29 19 40 4 13 5 10 3 -8 -3 -23 1 -27 20 -27 13 0 24 5 24 10 0
6 -7 10 -16 10 -10 0 -14 6 -11 14 3 7 1 18 -3 22 -6 6 -3 20 5 34 16 27 19
36 42 95 38 97 57 134 66 122 6 -8 7 -6 3 6 -8 26 4 48 24 42 11 -3 20 1 24
10 3 9 2 14 -3 11 -19 -12 -19 25 -2 65 17 37 20 39 30 23 13 -23 15 -10 2 15
-7 12 0 37 24 92 18 40 63 144 100 229 37 85 83 188 101 228 19 41 34 76 34
78 0 3 15 37 34 77 18 40 41 93 51 120 10 26 20 47 22 47 3 0 2 -7 -1 -16 -5
-14 -4 -15 8 -5 11 10 15 8 19 -6 4 -17 5 -17 6 0 0 10 6 15 11 12 6 -3 10 -4
10 -1 0 3 -11 11 -24 18 l-24 13 38 81 c21 45 41 91 45 104 6 18 9 20 17 9 7
-10 8 -8 3 7 -7 26 13 74 32 74 7 0 13 5 13 11 0 5 -5 7 -10 4 -13 -8 18 70
43 110 11 17 17 23 14 13 -8 -22 2 -29 24 -17 25 13 24 39 -1 39 -11 0 -20 1
-20 3 0 1 14 34 31 72 17 39 28 60 26 48 -3 -13 -1 -23 4 -23 4 0 6 -6 3 -13
-3 -8 2 -14 10 -14 11 0 12 6 5 24 -12 32 -12 32 11 28 13 -2 20 2 20 11 0 8
-3 13 -7 13 -25 -4 -44 3 -40 14 2 6 10 11 16 9 7 -1 10 1 7 6 -9 15 68 204
85 210 5 2 9 12 9 23 0 24 60 159 70 159 5 0 -1 -19 -13 -42 -11 -24 -20 -51
-18 -62 1 -10 -2 -16 -7 -12 -5 3 -9 -5 -9 -18 0 -14 -11 -39 -23 -56 -26 -36
-20 -52 10 -25 11 10 20 13 20 8 0 -14 -20 -30 -45 -36 l-20 -5 20 -1 c35 -1
49 16 51 61 2 69 4 76 14 53 7 -16 9 -17 9 -3 1 9 8 24 17 32 11 12 14 25 8
48 -6 30 -5 31 10 19 9 -8 19 -11 22 -8 8 8 -6 47 -16 47 -5 0 -7 7 -4 15 6
14 8 13 19 -2 19 -26 30 -8 29 47 0 33 4 51 13 54 8 4 12 15 9 31 -3 16 0 25
7 24 23 -3 37 1 37 11 0 5 -7 7 -15 4 -8 -4 -15 -1 -15 5 0 6 3 11 8 11 4 0 7
17 8 37 1 34 0 35 -9 13 -6 -14 -19 -44 -29 -67 -10 -23 -18 -49 -18 -57 0 -9
-5 -16 -11 -16 -6 0 -9 -7 -5 -15 3 -8 1 -15 -3 -15 -5 0 -7 -10 -3 -22 5 -21
6 -21 13 -2 5 12 8 13 8 4 0 -8 -4 -23 -8 -33 -5 -15 -9 -12 -19 16 -11 31 -8
42 37 148 27 62 60 139 74 169 13 30 30 70 37 87 7 18 17 30 23 26 5 -3 7 -2
4 4 -4 6 -1 24 6 42 9 25 18 31 42 32 29 2 29 2 3 6 l-27 4 18 42 c10 23 28
63 40 89 95 208 93 308 -8 406 -48 46 -100 74 -155 81 -47 7 -43 -1 -152 321
l-68 199 26 26 c42 42 53 88 34 139 -29 75 -55 91 -221 135 -83 21 -316 84
-520 140 -203 55 -613 166 -910 246 -297 80 -670 182 -830 225 -561 152 -594
160 -681 159 -43 0 -98 -6 -121 -14z m352 -256 c105 -29 251 -69 325 -89 74
-20 261 -71 415 -113 154 -42 388 -105 520 -142 132 -36 400 -108 595 -160
195 -51 423 -113 505 -136 83 -23 188 -52 234 -65 46 -13 86 -25 88 -28 3 -3
-15 -49 -40 -103 -45 -98 -139 -311 -302 -688 -199 -459 -291 -669 -360 -825
-40 -91 -103 -235 -140 -320 -37 -85 -97 -220 -133 -300 -36 -80 -77 -174 -92
-210 -15 -36 -82 -189 -150 -340 -67 -151 -195 -446 -285 -655 -177 -411 -266
-613 -278 -631 -5 -9 -21 -7 -59 7 -52 17 -209 61 -698 194 -561 152 -914 249
-1035 285 -55 16 -215 61 -355 100 -140 39 -325 91 -410 115 -85 24 -202 55
-260 70 -58 14 -110 28 -117 30 -8 3 4 41 37 117 26 62 80 190 120 283 40 94
108 253 152 355 93 217 312 740 373 890 24 58 59 143 80 190 20 47 59 139 87
205 62 151 197 475 298 715 43 102 103 248 133 325 31 77 95 235 142 350 48
116 100 244 116 285 141 354 143 356 244 347 33 -4 146 -30 250 -58z m2774
-1187 c12 -37 10 -42 -104 -302 -64 -146 -155 -350 -202 -455 -47 -104 -110
-246 -139 -315 -29 -69 -85 -197 -124 -285 -39 -88 -84 -191 -100 -230 -15
-38 -62 -144 -103 -235 -40 -91 -120 -271 -177 -400 -56 -129 -132 -300 -167
-380 -36 -79 -69 -153 -73 -165 -9 -25 -217 -502 -340 -780 -48 -110 -97 -222
-109 -249 l-22 -50 -26 26 -26 26 22 35 c11 19 45 92 75 163 50 120 152 355
326 754 40 91 109 251 155 355 84 193 238 544 450 1025 64 146 130 294 145
330 15 36 56 128 90 205 34 77 97 221 140 320 43 99 115 263 160 365 45 102
91 206 103 233 12 26 24 47 27 47 4 0 12 -17 19 -38z m61 -166 c10 -30 7 -42
-21 -103 -17 -37 -48 -108 -69 -158 -21 -49 -73 -169 -115 -265 -42 -96 -114
-260 -160 -365 -89 -205 -241 -552 -392 -895 -53 -118 -160 -361 -238 -540
-79 -179 -161 -365 -183 -415 -22 -49 -115 -261 -206 -470 -92 -209 -188 -428
-214 -487 -26 -60 -49 -108 -52 -108 -3 0 -13 12 -22 28 -17 29 -11 46 267
672 42 96 103 236 135 310 32 74 95 218 140 320 45 102 138 313 207 470 69
157 152 346 185 420 33 74 72 164 88 200 52 122 268 615 410 935 77 176 158
359 178 407 20 47 40 84 44 82 3 -2 12 -20 18 -38z m245 -273 c-3 -16 -28 -77
-55 -138 -27 -60 -63 -146 -80 -190 -17 -44 -71 -170 -120 -280 -48 -110 -120
-274 -160 -365 -40 -91 -121 -275 -180 -410 -271 -614 -413 -937 -480 -1090
-40 -91 -83 -190 -97 -220 -14 -30 -71 -161 -128 -290 -57 -129 -149 -338
-205 -465 -56 -126 -111 -251 -122 -277 -11 -26 -25 -45 -30 -42 -6 4 -6 9 -2
13 5 3 10 17 12 30 2 20 0 22 -13 11 -19 -15 -19 -10 -1 25 9 17 16 22 19 13
3 -7 5 -2 5 12 -1 23 49 160 74 205 8 14 8 20 -1 23 -6 2 -11 8 -11 13 0 4 7
6 15 3 8 -4 15 -1 15 5 0 6 -6 11 -12 11 -7 0 0 11 15 25 15 14 27 30 27 35 0
5 14 39 31 77 16 37 34 77 39 88 5 11 24 54 43 95 19 41 38 86 42 100 4 14 18
46 31 72 31 62 30 76 -1 18 -14 -26 -24 -37 -25 -27 0 10 12 41 27 70 20 40
28 47 31 32 3 -13 11 -2 28 40 13 32 22 61 19 63 -3 3 2 10 9 16 8 6 30 52 50
101 19 50 47 114 61 143 14 29 22 58 19 64 -4 6 -3 8 4 4 6 -3 17 13 28 41 9
27 21 52 26 57 4 6 8 15 8 20 0 6 -11 -6 -24 -26 -33 -54 -39 -36 -9 25 44 89
46 95 38 109 -5 7 -5 10 0 6 4 -4 29 34 54 86 25 51 51 91 57 89 7 -2 14 11
18 31 4 19 10 36 14 38 9 4 79 146 87 178 l6 25 -20 -25 c-19 -23 -21 -24 -21
-5 l-1 20 -8 -20 c-5 -11 -6 -25 -4 -31 2 -6 -3 -11 -11 -11 -13 0 -13 5 0 35
8 19 14 36 14 39 0 2 5 1 11 -3 8 -4 9 1 4 16 -6 19 -4 22 9 17 9 -4 16 -2 16
3 0 6 -4 10 -9 10 -5 0 2 27 16 59 14 33 31 57 37 55 6 -2 20 15 30 38 16 38
20 41 27 23 8 -16 8 -15 4 7 -6 34 14 85 27 66 5 -8 6 -1 2 16 -6 25 -4 28 10
23 18 -7 22 8 5 19 -6 3 -7 9 -3 13 5 3 16 20 25 36 9 17 21 29 28 27 7 -1 10
1 7 6 -3 5 2 21 9 36 8 16 12 33 8 39 -3 5 -2 7 4 4 10 -7 63 101 63 128 0 9
4 14 8 11 9 -5 37 62 30 70 -3 2 -11 -7 -18 -21 -7 -14 -17 -25 -22 -25 -5 0
-6 5 -3 10 3 6 4 10 1 10 -2 0 -15 -20 -27 -45 -35 -70 -34 -45 2 34 25 55 36
71 48 66 13 -5 14 -4 4 6 -17 18 -16 29 3 29 11 0 14 6 9 20 -4 11 -2 20 4 20
6 0 20 19 32 43 27 53 28 54 40 37 6 -10 7 -4 3 20 -4 26 -3 31 5 20 5 -8 11
-12 13 -10 2 3 9 16 17 30 13 23 13 24 -2 11 -10 -8 -17 -9 -17 -3 0 6 9 17
20 25 17 12 43 62 121 234 10 24 19 47 19 52 0 4 20 48 44 97 23 49 52 110 62
136 10 27 23 48 27 48 5 0 6 4 2 9 -3 5 6 26 20 47 14 20 25 42 25 49 0 7 10
17 23 23 17 8 18 11 5 11 -25 1 -11 31 14 31 17 0 19 -4 13 -27z m-114 -850
c-12 -20 -14 -14 -5 12 4 9 9 14 11 11 3 -2 0 -13 -6 -23z m-360 -10 c-12 -20
-14 -14 -5 12 4 9 9 14 11 11 3 -2 0 -13 -6 -23z m342 -108 c-5 -25 -7 -26
-13 -10 -4 11 -2 25 4 31 15 16 15 14 9 -21z m-418 -145 c-3 -5 -12 -10 -18
-10 -7 0 -6 4 3 10 19 12 23 12 15 0z m-114 -187 c-12 -20 -14 -14 -5 12 4 9
9 14 11 11 3 -2 0 -13 -6 -23z m-21 -57 c0 -3 -4 -8 -10 -11 -5 -3 -10 -1 -10
4 0 6 5 11 10 11 6 0 10 -2 10 -4z m-4077 -1347 c78 -23 144 -43 146 -45 8 -8
-43 -105 -53 -101 -6 2 -51 15 -99 28 -76 21 -89 27 -94 49 -4 14 -17 44 -30
68 -13 23 -21 42 -18 42 3 0 70 -18 148 -41z m3420 -134 c-3 -9 -8 -14 -10
-11 -3 3 -2 9 2 15 9 16 15 13 8 -4z m-3391 -59 l57 -17 -30 -60 c-17 -32 -35
-59 -41 -59 -6 0 -30 11 -54 25 -43 25 -64 62 -64 113 0 23 3 24 38 19 20 -2
63 -12 94 -21z m3374 -54 c-4 -3 -11 0 -16 8 -15 24 -11 33 6 15 9 -9 13 -19
10 -23z m-2411 -39 c50 -13 155 -42 235 -63 130 -35 243 -65 680 -185 316 -86
533 -147 622 -173 l97 -28 46 -63 c26 -35 45 -64 43 -66 -2 -1 -68 15 -148 37
-286 77 -477 129 -620 168 -80 22 -194 53 -255 69 -60 16 -180 48 -265 71 -85
23 -211 57 -280 75 -389 103 -445 119 -365 110 36 -4 37 -4 11 5 -17 5 -34 16
-38 25 -5 8 -15 15 -23 15 -8 0 -16 4 -19 9 -4 5 4 7 16 4 23 -6 23 -5 -2 17
l-25 23 33 -5 c18 -3 35 -1 37 2 5 8 86 -9 220 -47z m2405 23 c0 -3 -4 -8 -10
-11 -5 -3 -10 -1 -10 4 0 6 5 11 10 11 6 0 10 -2 10 -4z m-2424 -206 c109 -27
280 -72 379 -99 99 -26 317 -85 485 -131 635 -172 895 -241 930 -247 15 -3 37
-21 54 -46 17 -23 50 -66 74 -94 25 -29 41 -53 36 -53 -5 0 -71 18 -149 39
-164 47 -1046 286 -1220 331 -164 43 -440 120 -676 188 -182 52 -195 57 -172
69 30 16 36 16 28 3 -3 -6 1 -7 9 -4 13 5 13 9 -1 32 -22 36 -28 41 -20 20 3
-10 1 -20 -5 -24 -7 -5 -8 -2 -3 6 6 10 1 12 -26 8 -33 -6 -33 -6 -6 5 16 6
25 16 23 24 -6 16 -1 16 24 3 16 -8 18 -8 14 5 -9 22 2 20 222 -35z m-709 28
c27 -7 49 -13 51 -14 4 -2 -29 -96 -67 -186 l-32 -76 -57 15 c-31 9 -61 19
-65 23 -18 15 83 250 108 250 8 0 36 -5 62 -12z m443 -58 c0 -5 -5 -10 -11
-10 -5 0 -7 5 -4 10 3 6 8 10 11 10 2 0 4 -4 4 -10z m2690 -600 c0 -5 -5 -10
-11 -10 -5 0 -7 5 -4 10 3 6 8 10 11 10 2 0 4 -4 4 -10z"/>
<path d="M4335 7708 c-33 -84 -61 -156 -63 -159 -4 -8 156 -59 185 -59 41 0
140 68 165 114 5 10 19 50 30 89 10 40 24 77 29 83 6 8 -31 22 -129 48 -77 20
-143 36 -148 36 -5 0 -36 -69 -69 -152z m199 38 c4 -18 20 -52 36 -74 16 -22
26 -43 23 -46 -3 -3 -28 -9 -55 -12 -44 -6 -52 -11 -66 -40 -19 -41 -25 -42
-46 -9 -20 31 -21 79 -1 95 8 7 15 17 15 23 0 5 -9 2 -21 -9 -24 -21 -54 -9
-54 22 0 15 11 21 60 29 48 9 62 15 74 37 19 32 27 29 35 -16z"/>
<path d="M4482 7694 c1 -9 9 -19 16 -22 9 -3 13 2 10 14 -1 9 -9 19 -16 22 -9
3 -13 -2 -10 -14z"/>
<path d="M4450 7605 c-8 -9 -8 -15 -2 -15 12 0 26 19 19 26 -2 2 -10 -2 -17
-11z"/>
<path d="M4781 7666 c-25 -95 -80 -189 -130 -225 -44 -31 -145 -71 -181 -71
-38 0 -178 38 -207 56 -12 8 -24 10 -27 6 -3 -4 -46 -111 -96 -238 -51 -126
-114 -278 -140 -339 -74 -171 -76 -160 27 -119 48 20 122 47 163 61 61 21 165
83 249 150 3 2 -6 24 -18 48 -13 25 -20 53 -17 61 4 11 -7 21 -37 34 -23 11
-46 20 -52 20 -5 0 -19 -30 -31 -65 -11 -36 -19 -65 -16 -65 2 0 11 4 20 9 21
11 57 -12 49 -32 -10 -28 -94 -67 -156 -74 -35 -3 -61 -2 -61 3 0 5 14 43 31
84 91 223 112 271 118 267 31 -17 144 -67 145 -65 2 2 7 18 12 36 8 32 19 39
187 118 122 58 183 82 191 75 6 -5 36 -57 66 -116 46 -88 58 -105 75 -101 11
2 51 14 90 25 38 12 80 21 92 21 28 0 28 11 3 86 -32 94 -28 88 -45 74 -8 -7
-29 -15 -47 -19 -41 -9 -44 -22 -13 -59 l25 -30 -35 -12 c-20 -7 -42 -10 -49
-7 -12 5 -56 115 -56 139 0 7 97 39 211 67 l66 17 53 -153 53 -152 26 18 c14
10 60 40 101 66 110 71 260 185 260 198 0 36 24 -27 64 -168 25 -88 56 -192
69 -232 l23 -72 130 85 c71 47 138 94 150 105 11 10 25 19 32 19 6 0 43 -37
83 -82 39 -46 81 -91 92 -102 l22 -18 -25 -19 c-14 -11 -46 -35 -71 -53 l-47
-34 -30 31 c-64 68 -69 124 -5 61 20 -20 30 -24 42 -17 24 15 20 25 -30 80
l-45 51 -40 -37 c-21 -20 -49 -44 -61 -52 -21 -15 -21 -15 20 -61 89 -97 128
-138 132 -138 2 0 31 16 65 36 65 38 197 87 216 80 11 -4 209 -315 203 -320
-2 -1 -20 -12 -40 -24 l-37 -22 -42 77 c-34 62 -107 179 -127 202 -2 3 -170
-80 -190 -94 -2 -1 21 -38 50 -82 28 -44 64 -101 78 -125 l27 -45 77 19 c90
22 118 21 123 -7 7 -38 25 -42 19 -4 l-5 36 95 7 c53 4 97 5 99 3 12 -12 -159
-387 -176 -387 -6 0 -10 1 -10 3 0 1 -16 41 -35 87 -19 46 -35 88 -35 93 0 5
18 6 40 2 l40 -7 25 56 c14 31 25 59 25 61 0 10 -64 5 -154 -11 -50 -9 -92
-18 -93 -18 -4 -4 86 -264 131 -378 25 -64 46 -124 46 -134 0 -30 16 -5 53 81
19 44 78 181 132 305 108 250 157 371 153 375 -2 1 -43 12 -93 25 -49 12 -99
28 -110 35 -31 19 -95 147 -102 203 -6 57 13 135 59 230 16 35 28 65 26 66 -1
2 -73 21 -158 43 -85 22 -163 43 -173 48 -16 7 -17 3 -11 -31 6 -39 5 -39 -41
-62 -26 -13 -49 -21 -51 -20 -11 12 -54 80 -54 87 0 5 6 11 14 14 7 3 15 14
18 24 5 17 -13 24 -151 61 -86 24 -250 69 -366 102 -115 32 -284 77 -373 99
-90 23 -172 46 -182 51 -29 15 -32 13 -28 -27 3 -36 1 -38 -46 -58 -41 -17
-50 -18 -54 -6 -3 8 -15 24 -28 36 l-24 22 20 26 c11 14 20 29 20 35 0 5 -46
21 -102 36 -57 14 -112 29 -124 32 -19 5 -23 -3 -43 -80z m134 -100 l19 -35
-25 -20 c-38 -32 -55 -26 -50 15 1 7 -6 15 -15 18 -15 6 -14 9 6 31 31 33 43
31 65 -9z m485 -68 c8 -1 23 2 33 7 14 6 17 2 17 -23 0 -17 6 -32 15 -36 21
-8 19 -33 -5 -46 -11 -6 -20 -16 -20 -23 0 -9 -16 -13 -50 -13 -42 0 -50 3
-50 19 0 10 -9 21 -20 24 -24 6 -25 22 -5 49 8 10 15 27 15 38 0 15 5 17 28
12 15 -4 34 -8 42 -8z m600 -157 c0 -10 7 -24 15 -31 21 -17 19 -47 -5 -67
-11 -10 -20 -25 -20 -35 0 -10 -7 -18 -15 -18 -8 0 -15 5 -15 10 0 13 -37 13
-45 0 -8 -13 -26 -3 -24 13 3 26 -2 37 -16 37 -19 0 -19 19 0 44 8 11 15 28
15 38 0 16 5 18 34 13 20 -4 36 -2 40 4 11 18 36 12 36 -8z m527 -163 c18 -9
27 -19 25 -30 -2 -9 2 -26 8 -38 10 -18 7 -25 -20 -50 -37 -35 -56 -38 -65
-10 -5 16 -10 18 -25 10 -25 -13 -42 10 -44 58 l-1 37 45 -2 c35 -2 41 0 27 8
-19 11 -14 29 7 29 8 0 27 -6 43 -12z m-66 -497 c18 -31 37 -59 43 -63 6 -4 8
-9 6 -11 -27 -21 -70 -47 -80 -47 -14 0 -49 40 -50 58 0 6 9 12 19 12 52 0 67
32 32 65 -19 16 -21 16 -52 -6 l-32 -22 -19 22 -18 23 42 28 c52 33 60 28 109
-59z"/>
<path d="M4623 7246 c-73 -37 -122 -67 -122 -76 0 -8 8 -26 19 -40 24 -31 25
-41 3 -79 -13 -22 -15 -33 -7 -41 8 -8 40 4 115 43 57 29 123 61 147 70 23 9
42 23 42 31 0 17 -63 156 -70 154 -3 -1 -60 -29 -127 -62z m116 -42 c6 -15 10
-27 9 -28 -2 -1 -34 -16 -72 -34 -66 -32 -71 -33 -83 -16 -7 10 -13 20 -13 23
0 5 126 76 141 80 3 0 11 -11 18 -25z"/>
<path d="M5565 7211 c-131 -100 -308 -192 -569 -296 -212 -83 -447 -190 -458
-207 -4 -7 -9 -17 -11 -22 -1 -5 -47 -1 -100 8 -90 15 -102 15 -160 0 -34 -8
-142 -54 -240 -102 l-178 -86 -13 -46 c-8 -25 -17 -53 -21 -62 -6 -15 -3 -16
32 -7 85 23 220 97 264 146 l44 49 67 -16 c36 -8 69 -18 72 -21 4 -3 -29 -40
-73 -82 -64 -61 -101 -86 -184 -127 -58 -28 -149 -66 -203 -83 l-98 -32 -44
-110 c-99 -253 -106 -349 -34 -512 57 -129 81 -215 84 -311 l3 -84 -29 6
c-100 20 -106 24 -106 66 0 77 -30 184 -87 313 -14 31 -28 57 -32 57 -3 0 -17
-35 -30 -79 -21 -70 -22 -84 -11 -137 17 -89 92 -316 110 -337 4 -5 52 -17
106 -28 55 -10 108 -21 119 -23 15 -4 23 -19 33 -58 20 -87 60 -180 110 -261
80 -129 162 -219 162 -177 0 32 37 15 127 -56 123 -97 154 -131 207 -220 34
-58 45 -70 58 -63 57 32 152 50 304 59 251 13 373 50 562 169 l83 52 54 -16
c30 -8 74 -24 99 -35 44 -18 46 -18 83 0 401 196 389 189 424 268 16 36 28 67
26 69 -7 7 -188 -76 -231 -106 -22 -16 -59 -48 -81 -70 -25 -26 -48 -41 -64
-41 -30 0 -131 31 -131 40 0 20 186 172 255 208 17 9 100 46 185 83 l155 67
18 48 c19 52 100 241 143 334 l26 55 -61 116 c-34 64 -73 150 -87 190 -25 74
-53 273 -41 286 4 3 35 0 70 -8 l62 -14 7 -85 c6 -87 39 -188 93 -290 l23 -45
31 68 31 68 -26 116 c-28 126 -66 244 -89 279 -11 18 -30 24 -102 34 -48 7
-95 17 -104 21 -9 4 -24 38 -34 76 -39 149 -141 327 -277 484 -87 101 -136
177 -177 279 -31 78 -81 242 -81 266 0 21 -10 17 -65 -25z m25 -191 c52 -150
136 -296 229 -405 l43 -49 -28 -13 c-16 -7 -67 -30 -114 -51 -47 -21 -115 -51
-152 -67 -38 -15 -68 -33 -68 -39 0 -6 9 -26 20 -43 19 -31 23 -33 77 -33 l58
0 2 -54 2 -54 -37 -6 c-20 -3 -71 -6 -113 -6 l-76 0 -31 88 c-48 137 -55 163
-46 172 13 12 272 140 284 140 16 0 12 12 -16 54 -31 46 -124 236 -124 254 0
8 -3 12 -7 10 -66 -34 -310 -150 -344 -163 l-46 -19 47 -37 c46 -36 71 -65
143 -165 l36 -51 -73 -47 c-41 -25 -99 -67 -130 -92 l-55 -46 -73 46 c-120 76
-113 66 -93 125 9 28 21 51 26 51 6 0 35 -16 65 -35 l55 -35 32 23 c18 13 39
27 48 30 13 4 1 22 -53 79 -71 75 -158 188 -158 205 0 6 51 29 113 53 115 44
411 186 482 232 22 14 43 23 46 19 3 -3 16 -35 29 -71z m-148 -324 c14 -20 15
-28 5 -50 -7 -14 -17 -26 -24 -26 -6 0 -17 -2 -25 -5 -9 -4 -20 8 -31 32 -9
21 -13 39 -8 41 4 1 17 9 27 17 26 20 36 18 56 -9z m-641 -35 c34 -35 37 -68
8 -105 -54 -69 -121 -52 -143 37 -6 24 -1 34 28 63 42 42 69 43 107 5z m-103
-243 c39 -11 72 -24 72 -28 0 -15 -41 -100 -48 -100 -4 0 -35 10 -67 21 -33
12 -97 24 -141 26 l-81 6 -8 -135 -7 -136 -86 -40 c-48 -23 -127 -60 -177 -83
-49 -23 -103 -51 -118 -61 -16 -11 -30 -18 -33 -16 -6 6 -79 242 -88 283 -6
29 -4 32 49 58 65 32 75 33 75 10 0 -10 11 -52 25 -94 l25 -76 104 53 103 53
7 93 c12 166 5 154 110 187 101 31 109 31 284 -21z m1267 -103 c32 -31 34 -96
5 -125 -26 -26 -91 -27 -112 -2 -28 31 -40 63 -34 88 17 64 95 86 141 39z
m-995 -70 c52 -47 99 -85 103 -85 4 0 19 8 34 17 14 9 47 27 74 39 l49 23 24
-42 c13 -23 30 -59 37 -80 13 -36 16 -38 44 -32 47 10 165 24 212 25 l42 0
-10 -32 c-18 -64 -40 -211 -32 -218 4 -4 58 -18 118 -30 61 -13 111 -24 113
-25 1 -1 -21 -43 -49 -93 l-51 -92 46 -58 c25 -32 46 -61 46 -64 0 -3 -39 -27
-87 -53 -49 -26 -89 -48 -91 -50 -1 -1 12 -45 30 -98 17 -54 28 -100 25 -104
-4 -3 -44 -16 -89 -28 l-82 -22 -11 -76 c-6 -42 -15 -81 -21 -87 -9 -9 -175
28 -211 48 -12 7 -28 -17 -76 -110 -34 -65 -64 -118 -69 -118 -7 0 -75 57
-151 127 l-38 36 -22 -20 c-12 -11 -47 -34 -79 -50 l-56 -30 -28 56 c-15 31
-38 74 -51 97 l-23 40 -82 -16 c-46 -10 -110 -20 -142 -24 -54 -7 -58 -6 -53
11 43 139 68 246 60 254 -6 6 -35 17 -65 25 -31 7 -72 21 -92 29 l-37 16 42
79 41 79 -41 57 c-23 32 -41 62 -41 68 0 6 38 33 85 59 47 27 85 52 85 56 0 5
-13 41 -30 81 -16 40 -30 78 -30 85 0 7 30 25 68 41 37 15 70 30 74 34 5 3 13
32 19 64 6 32 14 69 19 81 l9 22 78 -22 c43 -13 90 -28 105 -34 32 -12 34 -9
98 131 25 54 50 98 55 98 6 0 53 -38 105 -85z m909 -165 c20 0 82 -64 157
-161 l43 -56 -40 -88 c-21 -49 -50 -101 -64 -115 l-26 -27 35 -61 c19 -33 37
-71 41 -83 7 -20 12 -17 69 40 34 33 66 61 71 61 12 0 76 -120 69 -131 -2 -4
-32 -25 -67 -45 -34 -21 -92 -59 -129 -85 -65 -47 -67 -48 -74 -26 -3 12 -40
93 -80 180 l-74 159 33 56 c19 31 47 80 62 108 l27 52 -38 51 c-41 55 -77 74
-162 86 -61 8 -69 19 -52 72 21 63 23 63 106 37 41 -13 83 -24 93 -24z m-2067
-101 c16 -28 16 -32 2 -55 -20 -29 -64 -34 -64 -6 0 10 -5 23 -12 30 -9 9 -6
17 12 37 30 32 41 31 62 -6z m221 -204 c23 -50 64 -129 90 -177 l47 -88 -58
-108 -58 -108 33 -49 c40 -59 58 -70 145 -85 l66 -12 -15 -46 c-9 -26 -20 -52
-24 -58 -6 -7 -40 -3 -112 15 -98 24 -105 28 -124 61 -11 19 -42 70 -68 112
l-48 78 57 110 57 109 -35 53 c-19 29 -38 65 -42 81 -3 15 -11 27 -18 27 -6 0
-39 -28 -74 -61 -35 -33 -65 -59 -66 -57 -16 23 -56 133 -52 143 5 15 236 156
249 152 4 -1 26 -43 50 -92z m226 54 l23 -31 -23 -24 c-29 -31 -41 -30 -66 5
l-21 28 26 27 c15 14 29 26 32 26 4 0 17 -14 29 -31z m1551 -527 c-22 -39 -51
-40 -74 -1 l-18 31 28 24 29 23 25 -25 c24 -23 24 -26 10 -52z m413 -54 c13
-31 12 -35 -12 -60 l-26 -28 -22 28 c-30 36 -29 58 5 76 38 21 40 20 55 -16z
m-191 -124 c26 -71 47 -132 48 -136 0 -3 -14 -11 -30 -17 -17 -5 -44 -20 -61
-32 -17 -12 -32 -19 -35 -16 -3 2 -14 39 -26 81 -11 42 -23 76 -27 76 -3 0
-42 -16 -86 -36 -44 -19 -92 -40 -106 -45 -25 -10 -27 -15 -34 -97 -10 -125
-11 -129 -58 -146 -23 -8 -84 -31 -135 -51 l-94 -36 -104 37 c-57 20 -104 41
-104 47 0 22 45 87 60 87 9 0 43 -9 76 -21 63 -22 91 -21 182 6 l52 16 0 89
c0 124 4 132 92 165 90 35 288 131 308 151 8 8 19 13 24 11 6 -2 32 -62 58
-133z m-1905 -178 c22 -19 28 -32 28 -66 0 -111 -155 -106 -158 5 -1 29 5 43
27 61 35 30 67 30 103 0z m403 -53 c20 -62 92 -247 100 -256 8 -9 207 112 252
154 16 16 32 29 34 29 2 0 34 -25 71 -57 38 -31 69 -57 71 -58 6 -5 -44 -94
-53 -94 -5 -1 -23 8 -40 19 -39 26 -46 25 -109 -10 l-54 -31 106 -104 c58 -58
104 -106 101 -108 -2 -3 -37 -7 -77 -11 l-73 -6 -101 99 -101 99 -32 -20 -33
-19 -21 34 c-12 19 -21 39 -21 45 0 25 -26 21 -116 -17 -52 -23 -102 -41 -110
-41 -19 0 -113 71 -114 85 0 6 51 26 113 45 l112 36 -2 31 c-2 17 -7 43 -13
57 -9 24 -15 26 -65 26 -51 0 -55 2 -55 24 0 12 5 37 11 55 l11 31 98 0 98 0
12 -37z m711 -304 c16 -16 19 -30 17 -67 -3 -40 -7 -48 -35 -64 -29 -17 -35
-18 -66 -4 -59 24 -74 81 -36 130 26 34 88 37 120 5z m-641 -157 c19 -34 6
-68 -27 -75 -46 -9 -64 58 -23 85 33 22 33 22 50 -10z"/>
<path d="M4860 6064 c-28 -59 -51 -94 -61 -94 -8 0 -42 11 -75 24 -109 44
-104 44 -104 -11 0 -80 -6 -90 -57 -98 -88 -13 -87 -9 -48 -105 19 -46 33 -85
32 -86 -1 -1 -29 -15 -62 -32 -33 -17 -69 -37 -80 -46 -20 -14 -19 -16 18 -54
l39 -40 -37 -57 c-20 -31 -35 -58 -33 -60 11 -9 71 -35 118 -50 30 -10 58 -19
61 -21 4 -2 -7 -47 -22 -100 -16 -54 -28 -98 -26 -100 1 -2 45 3 97 10 52 7
96 12 98 11 1 -1 19 -36 40 -78 l37 -75 61 38 62 38 62 -54 c60 -53 80 -64 80
-44 0 21 93 170 106 170 7 0 50 -13 96 -30 45 -16 83 -30 84 -30 1 0 7 36 14
80 l12 80 64 0 c34 0 65 4 68 9 3 5 -8 48 -24 97 -17 48 -30 88 -30 89 0 0 36
19 80 40 44 21 80 43 80 47 0 4 -16 26 -36 48 l-36 39 37 61 c21 34 35 63 32
66 -2 3 -50 14 -106 26 -79 17 -101 25 -96 36 8 23 36 185 31 189 -2 2 -45 -6
-96 -17 -51 -11 -96 -17 -100 -13 -4 4 -15 31 -24 58 -26 80 -24 79 -104 45
-39 -16 -74 -30 -77 -30 -4 0 -34 26 -68 59 l-62 59 -45 -94z m252 -204 c101
-38 188 -152 207 -271 24 -151 -45 -282 -182 -345 -54 -25 -74 -29 -152 -29
-82 0 -97 3 -157 33 -111 55 -172 153 -171 277 2 155 95 292 233 341 54 20
161 17 222 -6z"/>
<path d="M4939 5801 c-147 -30 -250 -223 -189 -354 30 -63 99 -122 167 -144
46 -14 64 -15 120 -6 76 14 157 62 188 115 23 40 24 114 1 190 -22 74 -47 110
-108 156 -57 43 -113 57 -179 43z m61 -166 l0 -145 -32 -20 c-18 -11 -48 -23
-67 -26 -30 -6 -38 -3 -63 25 -33 37 -36 78 -9 136 l19 40 -5 -55 c-6 -66 7
-83 67 -83 68 0 71 8 64 149 -6 111 -5 124 9 124 15 0 17 -17 17 -145z m88
102 c25 -26 20 -37 -15 -37 -19 0 -23 5 -23 30 0 36 9 38 38 7z m69 -80 c-2
-6 -14 -14 -28 -18 -13 -4 -39 -12 -56 -18 -28 -8 -33 -7 -33 7 0 11 16 22 48
33 48 16 76 15 69 -4z m-67 -157 c22 -79 23 -81 4 -95 -31 -24 -122 -55 -159
-55 -41 0 -84 35 -66 53 8 8 14 8 23 -1 18 -18 59 -15 122 9 63 24 64 29 42
114 -13 49 -12 70 3 60 5 -2 18 -41 31 -85z m74 59 c11 -56 -12 -67 -34 -16
-7 17 -15 35 -18 40 -2 4 7 7 21 7 19 0 26 -6 31 -31z m36 -104 c0 -21 -77
-103 -113 -122 -35 -18 -49 -8 -19 13 40 28 73 68 79 97 4 20 11 27 29 27 15
0 24 -6 24 -15z"/>
<path d="M6824 7163 c-8 -21 -31 -78 -50 -127 l-35 -89 35 -52 c32 -48 38 -53
109 -74 125 -37 122 -38 163 54 57 127 103 239 100 242 -4 4 -288 83 -298 83
-4 0 -15 -17 -24 -37z m158 -104 c6 -32 16 -51 38 -69 33 -27 31 -40 -6 -40
-13 0 -27 -8 -33 -17 -8 -15 -12 -16 -22 -5 -19 18 -22 16 -43 -23 -11 -19
-25 -35 -33 -35 -16 0 -18 52 -3 80 9 16 5 22 -25 36 -42 19 -47 27 -39 49 5
11 14 15 27 11 24 -6 95 28 104 50 10 27 28 8 35 -37z"/>
<path d="M6920 7023 c1 -14 30 -47 36 -41 6 7 -17 48 -28 48 -5 0 -8 -3 -8 -7z"/>
<path d="M5015 7121 c-182 -62 -267 -98 -393 -168 -245 -138 -268 -190 -34
-80 166 79 325 142 495 197 70 23 127 46 127 51 0 22 -22 49 -38 48 -9 0 -80
-22 -157 -48z"/>
<path d="M5891 6934 l-24 -23 56 -61 c162 -175 279 -356 338 -525 l28 -80 43
-6 c24 -4 44 -5 46 -4 6 6 -61 190 -90 249 -41 82 -132 221 -186 286 -61 73
-174 190 -181 189 -3 -1 -17 -12 -30 -25z"/>
<path d="M3326 5443 c-6 -14 -5 -15 5 -6 7 7 10 15 7 18 -3 3 -9 -2 -12 -12z"/>
<path d="M3316 5232 c-26 -72 -92 -233 -156 -382 -60 -141 -128 -306 -134
-327 -6 -19 -2 -23 36 -33 147 -38 203 -77 253 -175 41 -82 39 -144 -10 -271
-21 -54 -42 -105 -48 -112 -5 -7 -8 -14 -6 -16 13 -10 334 -96 344 -92 10 3
11 14 5 40 -9 41 -6 46 31 46 15 0 31 5 34 10 13 21 34 8 59 -36 14 -26 26
-50 26 -54 0 -4 -14 -13 -31 -20 -17 -8 -26 -17 -21 -22 5 -5 58 -22 119 -38
61 -16 189 -51 284 -79 96 -27 266 -75 379 -106 113 -31 217 -60 232 -65 30
-10 38 -5 38 24 1 14 16 31 44 49 24 15 46 27 49 27 6 0 57 -85 57 -95 0 -3
-12 -10 -27 -16 -16 -6 -23 -13 -17 -19 7 -7 200 -64 247 -74 4 0 23 45 42
102 53 157 106 221 215 263 76 29 199 23 290 -15 12 -5 33 34 99 186 134 308
219 513 217 516 -2 1 -30 -11 -62 -27 -73 -36 -183 -83 -249 -106 -27 -10 -58
-25 -68 -34 -18 -15 -18 -16 4 -21 20 -5 11 -13 -63 -55 -48 -28 -88 -55 -88
-62 0 -10 100 -95 137 -117 8 -4 20 8 33 33 27 54 25 68 -10 76 -16 4 -30 13
-30 21 0 7 45 36 102 64 105 51 134 60 125 38 -3 -7 -26 -60 -50 -118 -24 -58
-61 -138 -81 -178 -32 -64 -39 -71 -56 -62 -10 5 -22 15 -26 21 -8 13 -94 69
-106 69 -5 0 -6 -10 -4 -22 3 -13 7 -39 10 -58 l6 -36 -55 -11 c-30 -7 -105
-34 -167 -62 -143 -63 -163 -68 -176 -45 -9 16 -14 16 -37 6 -23 -11 -198 -51
-282 -66 -29 -5 -33 -3 -39 22 -3 15 -21 64 -40 109 -19 45 -34 86 -34 92 0 6
-3 11 -6 11 -9 0 -243 -148 -323 -204 -64 -44 -81 -48 -81 -21 0 18 -85 289
-113 361 -13 32 -27 67 -30 77 -6 15 -14 11 -63 -29 -32 -25 -89 -66 -128 -92
-39 -25 -83 -53 -98 -64 -15 -10 -29 -18 -32 -18 -8 0 -146 234 -146 248 0 6
21 23 48 36 26 13 60 36 76 51 l29 26 55 -57 c33 -35 50 -60 42 -62 -7 -3 -21
-13 -31 -23 -25 -25 -26 -25 -39 15 -14 43 -33 60 -59 51 -33 -10 -30 -30 15
-95 24 -34 46 -65 48 -67 3 -3 41 23 85 58 l81 62 -78 81 c-43 45 -86 92 -95
106 -11 15 -20 21 -25 15 -4 -6 -59 -48 -122 -94 l-115 -84 -53 59 c-52 57
-192 257 -192 274 0 5 42 18 93 30 126 29 127 29 127 48 0 12 9 7 30 -18 16
-19 30 -38 30 -41 0 -4 -36 -15 -80 -25 -44 -10 -80 -22 -80 -27 0 -8 42 -67
126 -175 8 -12 26 -2 95 48 46 35 86 65 88 66 2 2 -19 34 -46 71 -28 37 -63
90 -78 116 -23 40 -32 48 -49 42 -107 -31 -207 -45 -297 -43 l-98 3 62 145
c35 80 74 166 88 192 l24 48 48 -89 c26 -48 47 -93 47 -99 0 -6 -17 -8 -42 -6
l-43 4 -27 -60 -27 -60 32 0 c36 1 214 34 222 42 7 7 -25 96 -80 223 -27 61
-65 159 -86 219 -21 59 -39 110 -41 111 -2 2 -16 -31 -32 -73z m309 -794 c-22
-18 -44 -33 -49 -33 -12 0 -58 66 -52 73 3 2 12 0 22 -6 20 -11 54 17 54 45 0
14 7 10 32 -15 l33 -32 -40 -32z m-95 -343 c0 -15 6 -25 14 -25 7 0 19 -7 26
-15 13 -16 8 -26 -39 -85 -17 -22 -23 -23 -40 -12 -12 6 -29 12 -39 12 -10 0
-27 7 -38 15 -17 13 -17 17 -4 28 9 7 14 24 12 41 -4 31 10 46 46 46 12 0 22
5 22 10 0 6 9 10 20 10 15 0 20 -7 20 -25z m522 -170 c6 -13 19 -27 30 -30 18
-6 26 -45 9 -45 -5 0 -14 -13 -20 -30 -11 -32 -21 -36 -52 -20 -16 9 -21 7
-27 -10 -8 -21 -8 -21 -20 4 -6 15 -24 31 -38 36 -24 10 -25 12 -11 28 8 9 17
26 19 37 3 13 11 19 25 18 11 -1 29 7 38 17 24 26 33 25 47 -5z m555 -179 c11
-13 27 -26 34 -28 11 -4 12 -9 2 -27 -7 -11 -13 -30 -13 -42 0 -17 -5 -20 -35
-18 -25 3 -39 -2 -49 -16 -15 -19 -15 -19 -16 8 0 22 -5 27 -24 27 -32 0 -44
34 -22 59 9 10 16 22 16 28 0 6 10 8 23 6 14 -3 29 2 36 11 18 21 24 20 48 -8z
m443 -110 c0 -7 7 -19 15 -26 12 -10 12 -15 -2 -36 -20 -32 -52 -28 -72 8 -14
24 -14 28 3 47 22 24 56 28 56 7z"/>
<path d="M3600 4953 c0 -14 55 -171 78 -223 48 -110 194 -309 311 -425 l61
-59 38 37 38 37 43 -57 c56 -74 114 -196 143 -298 12 -44 23 -82 24 -84 2 -1
18 8 36 22 18 13 87 55 153 92 66 37 132 76 146 86 26 17 27 17 39 -7 16 -29
35 -30 181 -9 223 33 383 92 546 201 93 63 102 72 82 85 -27 17 -56 8 -153
-45 -91 -51 -233 -109 -331 -136 -22 -6 -110 -13 -195 -16 -172 -6 -214 -16
-354 -86 -43 -22 -79 -38 -81 -36 -2 2 -21 41 -43 88 -21 47 -58 109 -80 139
-40 53 -155 161 -171 161 -4 0 -18 -11 -31 -25 -13 -14 -26 -25 -30 -25 -10 0
-163 179 -203 239 -52 77 -110 192 -136 274 -21 62 -25 67 -51 67 -16 0 -35 3
-44 6 -9 3 -16 2 -16 -3z"/>
<path d="M2882 4209 c-40 -95 -71 -173 -70 -174 2 -1 68 -19 148 -40 80 -21
153 -40 163 -43 9 -2 17 1 17 7 0 6 19 59 41 117 45 113 48 159 14 210 -18 28
-41 39 -135 64 -36 9 -74 20 -85 23 -18 6 -28 -11 -93 -164z m218 40 c0 -34 6
-46 37 -74 l38 -35 -33 -6 c-18 -4 -35 -11 -38 -15 -3 -5 -18 -9 -34 -9 -22 0
-31 -7 -42 -30 -17 -39 -44 -36 -41 5 2 19 -4 33 -17 42 -11 8 -20 25 -20 37
0 13 -7 26 -15 30 -24 9 -17 24 20 42 29 13 38 14 51 3 13 -11 19 -8 41 19 34
45 53 42 53 -9z"/>
<path d="M3033 4175 c-24 -23 -29 -35 -15 -35 11 0 62 43 62 53 0 14 -25 5
-47 -18z"/>
<path d="M5260 4080 c-46 -22 -86 -43 -88 -48 -1 -5 6 -19 16 -32 l19 -24 51
32 c52 32 61 31 75 -9 4 -13 -15 -24 -89 -54 -52 -20 -97 -36 -98 -34 -2 2
-14 28 -26 57 -20 45 -26 52 -51 52 -19 0 -29 -5 -29 -15 0 -24 73 -165 86
-165 6 0 69 22 140 49 82 32 130 55 132 65 2 9 -1 31 -7 49 -5 17 -15 51 -21
75 -6 23 -14 42 -18 41 -4 -1 -45 -18 -92 -39z"/>
<path d="M4904 3990 c-6 -6 -43 -14 -83 -17 -60 -5 -72 -9 -68 -22 11 -33 59
-146 66 -154 5 -4 48 2 98 14 l91 22 -37 83 c-35 82 -47 94 -67 74z m4 -94 c7
-36 -52 -51 -63 -16 -9 28 3 42 33 38 17 -2 28 -10 30 -22z"/>
<path d="M5393 3637 c-29 -18 -59 -39 -67 -47 -13 -14 -109 -222 -103 -225 8
-6 266 -75 277 -75 20 0 150 304 136 318 -3 2 -40 14 -83 27 -43 13 -85 25
-93 28 -8 3 -38 -9 -67 -26z m102 -80 c6 -20 20 -44 33 -53 12 -8 22 -24 22
-35 0 -19 -3 -21 -51 -24 -42 -3 -59 -13 -59 -34 0 -11 -3 -26 -6 -35 -9 -25
-67 41 -60 68 4 14 -4 31 -26 53 -17 18 -29 35 -26 38 3 3 28 8 56 12 40 4 55
11 67 30 21 32 37 25 50 -20z"/>
<path d="M5432 3514 c4 -21 22 -23 26 -1 2 10 -3 17 -13 17 -10 0 -15 -6 -13
-16z"/>
<path d="M7290 5435 c-7 -9 -11 -17 -9 -20 3 -2 10 5 17 15 14 24 10 26 -8 5z"/>
<path d="M6976 4725 c-9 -26 -7 -32 5 -12 6 10 9 21 6 23 -2 3 -7 -2 -11 -11z"/>
<path d="M6787 4293 c-4 -3 -7 -11 -7 -17 0 -6 5 -5 12 2 6 6 9 14 7 17 -3 3
-9 2 -12 -2z"/>
<path d="M6705 4109 c-4 -6 -5 -12 -2 -15 2 -3 7 2 10 11 7 17 1 20 -8 4z"/>
<path d="M3753 3105 c0 -8 4 -12 9 -9 5 3 6 10 3 15 -9 13 -12 11 -12 -6z"/>
<path d="M7920 6130 c0 -5 5 -10 10 -10 6 0 10 5 10 10 0 6 -4 10 -10 10 -5 0
-10 -4 -10 -10z"/>
<path d="M7896 6085 c-3 -8 -1 -15 4 -15 6 0 10 7 10 15 0 8 -2 15 -4 15 -2 0
-6 -7 -10 -15z"/>
<path d="M7915 6050 c3 -5 8 -10 11 -10 2 0 4 5 4 10 0 6 -5 10 -11 10 -5 0
-7 -4 -4 -10z"/>
<path d="M7876 6033 c-6 -14 -5 -15 5 -6 7 7 10 15 7 18 -3 3 -9 -2 -12 -12z"/>
<path d="M7900 6025 c0 -8 4 -15 10 -15 5 0 7 7 4 15 -4 8 -8 15 -10 15 -2 0
-4 -7 -4 -15z"/>
<path d="M7858 5933 c7 -3 16 -2 19 1 4 3 -2 6 -13 5 -11 0 -14 -3 -6 -6z"/>
<path d="M7835 5899 c-6 -17 -9 -19 -16 -8 -12 19 -11 6 1 -26 6 -15 6 -24 1
-20 -15 9 -40 -23 -47 -60 -3 -19 -10 -32 -15 -29 -5 3 -6 -3 -2 -12 4 -12 3
-15 -5 -10 -7 4 -12 1 -12 -8 0 -9 4 -16 10 -16 14 0 60 53 60 70 -1 12 -4 11
-15 -4 -12 -16 -15 -17 -15 -4 0 9 7 19 16 22 22 8 22 8 26 -16 3 -19 5 -17 9
9 3 18 2 30 -3 27 -4 -3 -8 -1 -8 4 0 6 8 13 17 16 12 5 13 10 5 18 -7 7 -7
19 -1 36 5 13 8 27 5 29 -2 3 -7 -5 -11 -18z"/>
<path d="M7746 5683 c-6 -14 -5 -15 5 -6 7 7 10 15 7 18 -3 3 -9 -2 -12 -12z"/>
<path d="M7590 5269 c0 -5 5 -7 10 -4 6 3 10 8 10 11 0 2 -4 4 -10 4 -5 0 -10
-5 -10 -11z"/>
<path d="M7513 5173 c-7 -2 -13 -16 -13 -29 0 -15 -6 -24 -15 -24 -8 0 -15 -5
-15 -10 0 -7 6 -7 20 0 11 6 20 20 20 30 0 11 7 20 15 20 8 0 15 5 15 10 0 11
-7 12 -27 3z"/>
<path d="M7525 5130 c3 -5 8 -10 11 -10 2 0 4 5 4 10 0 6 -5 10 -11 10 -5 0
-7 -4 -4 -10z"/>
<path d="M7491 5084 c0 -11 3 -14 6 -6 3 7 2 16 -1 19 -3 4 -6 -2 -5 -13z"/>
<path d="M7464 5075 c-3 -8 -4 -20 -2 -27 3 -7 7 -1 10 15 6 29 1 36 -8 12z"/>
<path d="M7485 5050 c-3 -5 -1 -10 4 -10 6 0 11 5 11 10 0 6 -2 10 -4 10 -3 0
-8 -4 -11 -10z"/>
<path d="M7401 4945 c-1 -11 -8 -30 -16 -42 -14 -19 -13 -21 10 -25 22 -5 25
-2 24 21 0 14 -4 35 -9 46 -9 20 -9 20 -9 0z"/>
<path d="M7431 4914 c0 -11 3 -14 6 -6 3 7 2 16 -1 19 -3 4 -6 -2 -5 -13z"/>
<path d="M7342 4805 c3 -11 9 -28 13 -37 4 -11 3 -18 -4 -18 -6 0 -11 7 -11
16 0 14 -3 14 -15 4 -17 -14 -21 -35 -5 -25 6 4 17 2 25 -5 19 -16 31 25 13
47 -7 9 -11 18 -10 20 2 3 0 8 -4 11 -4 4 -5 -2 -2 -13z"/>
<path d="M7300 4690 c0 -5 7 -10 15 -10 8 0 15 5 15 10 0 6 -7 10 -15 10 -8 0
-15 -4 -15 -10z"/>
<path d="M7242 4582 c-6 -15 -13 -36 -18 -47 -4 -11 -6 -29 -5 -40 1 -15 0
-17 -7 -7 -8 11 -10 11 -15 0 -3 -9 2 -14 14 -15 14 -1 19 5 20 25 1 31 27
105 28 80 1 -9 -3 -28 -8 -41 -6 -14 -7 -28 -3 -31 3 -4 12 12 18 35 10 34 10
44 -1 55 -11 11 -15 9 -23 -14z"/>
<path d="M7180 4451 c0 -5 5 -13 10 -16 6 -3 10 -2 10 4 0 5 -4 13 -10 16 -5
3 -10 2 -10 -4z"/>
<path d="M7135 4341 c-9 -22 -15 -45 -12 -53 3 -7 6 -4 6 9 1 25 17 39 23 21
3 -8 9 -4 17 10 13 24 9 52 -7 52 -5 0 -17 -18 -27 -39z m35 9 c0 -5 -4 -10
-10 -10 -5 0 -10 5 -10 10 0 6 5 10 10 10 6 0 10 -4 10 -10z"/>
<path d="M7080 4215 c0 -5 4 -16 9 -23 6 -11 10 -10 15 4 3 9 4 19 1 22 -3 3
-5 -1 -5 -9 0 -11 -2 -11 -10 1 -5 8 -10 11 -10 5z"/>
<path d="M7017 4060 c4 -16 3 -21 -5 -16 -7 4 -12 3 -12 -3 0 -5 4 -12 9 -16
14 -8 25 35 13 47 -8 8 -9 4 -5 -12z"/>
<path d="M6955 3930 c-3 -5 -1 -10 4 -10 6 0 11 5 11 10 0 6 -2 10 -4 10 -3 0
-8 -4 -11 -10z"/>
<path d="M6960 3834 c0 -8 5 -12 10 -9 6 4 8 11 5 16 -9 14 -15 11 -15 -7z"/>
<path d="M6906 3808 c-11 -35 -14 -60 -7 -52 10 11 23 64 16 64 -3 0 -7 -6 -9
-12z"/>
<path d="M6932 3790 c0 -14 2 -19 5 -12 2 6 2 18 0 25 -3 6 -5 1 -5 -13z"/>
<path d="M6863 3692 c-1 -28 1 -32 7 -17 11 26 12 55 3 55 -5 0 -9 -17 -10
-38z"/>
<path d="M6885 3670 c3 -5 8 -10 11 -10 2 0 4 5 4 10 0 6 -5 10 -11 10 -5 0
-7 -4 -4 -10z"/>
<path d="M6830 3639 c-7 -11 -9 -23 -6 -26 3 -3 9 2 13 12 6 18 7 18 14 -1 7
-18 8 -17 8 3 1 31 -16 38 -29 12z"/>
<path d="M6810 3585 c-7 -9 -10 -18 -7 -21 3 -3 10 4 17 15 13 25 8 27 -10 6z"/>
<path d="M6777 3503 c4 -10 2 -14 -4 -10 -6 4 -14 0 -17 -9 -8 -22 -8 -26 4
-19 6 3 13 -1 16 -9 6 -16 24 -12 24 5 0 6 -4 7 -10 4 -5 -3 -10 1 -10 9 0 8
7 16 15 18 13 2 12 5 -4 15 -17 11 -19 10 -14 -4z"/>
<path d="M6751 3401 c-7 -5 -12 -14 -10 -20 3 -6 9 -7 18 -2 7 5 12 14 10 20
-3 6 -9 7 -18 2z"/>
<path d="M6692 3322 c-14 -46 -15 -52 -4 -52 4 0 8 12 9 26 0 15 7 30 14 35
10 6 11 11 3 19 -8 8 -14 -1 -22 -28z"/>
<path d="M6667 3253 c-4 -3 -7 -11 -7 -17 0 -6 5 -5 12 2 6 6 9 14 7 17 -3 3
-9 2 -12 -2z"/>
<path d="M6641 3214 c0 -11 3 -14 6 -6 3 7 2 16 -1 19 -3 4 -6 -2 -5 -13z"/>
<path d="M6666 3205 c-3 -8 -1 -15 4 -15 6 0 10 7 10 15 0 8 -2 15 -4 15 -2 0
-6 -7 -10 -15z"/>
<path d="M6633 3174 c-15 -15 -18 -78 -4 -70 5 3 7 15 4 26 -4 13 1 26 12 34
10 7 14 15 9 18 -5 3 -15 0 -21 -8z"/>
<path d="M6569 3056 c0 -1 -3 -14 -5 -31 l-5 -30 21 23 c11 12 26 22 32 22 19
0 -1 14 -22 15 -11 1 -20 1 -21 1z"/>
<path d="M6483 2850 c-3 -11 -9 -20 -14 -20 -5 0 -9 -11 -9 -24 0 -13 -7 -29
-15 -36 -8 -7 -15 -16 -15 -21 0 -5 7 -6 15 -3 8 4 15 1 15 -5 0 -6 4 -11 10
-11 5 0 8 16 6 36 -2 30 0 35 16 30 16 -4 17 -2 7 11 -11 12 -10 17 4 24 9 5
14 16 11 24 -9 21 -25 18 -31 -5z"/>
<path d="M3584 2824 c2 -10 8 -20 14 -22 7 -2 12 -10 12 -18 0 -8 5 -14 11
-14 6 0 9 9 6 19 -7 28 19 16 28 -12 6 -22 6 -22 15 -2 7 16 9 17 9 3 1 -10 8
-15 19 -14 9 2 29 0 44 -5 28 -8 49 4 26 15 -7 3 1 4 17 0 18 -3 26 -2 20 4
-14 12 -87 32 -118 32 -14 0 -27 4 -29 9 -1 5 -20 12 -40 16 -31 6 -36 4 -34
-11z m36 2 c0 -3 -4 -8 -10 -11 -5 -3 -10 -1 -10 4 0 6 5 11 10 11 6 0 10 -2
10 -4z"/>
</g>
</svg>
